<svg width="25" height="25" viewBox="0 0 25 25" fill="none" xmlns="http://www.w3.org/2000/svg">
    <g id="Receipt">
        <path id="Vector"
            d="M7.25 10.2554C7.25 10.0565 7.32902 9.86569 7.46967 9.72504C7.61032 9.58439 7.80109 9.50537 8 9.50537H17C17.1989 9.50537 17.3897 9.58439 17.5303 9.72504C17.671 9.86569 17.75 10.0565 17.75 10.2554C17.75 10.4543 17.671 10.645 17.5303 10.7857C17.3897 10.9264 17.1989 11.0054 17 11.0054H8C7.80109 11.0054 7.61032 10.9264 7.46967 10.7857C7.32902 10.645 7.25 10.4543 7.25 10.2554ZM8 14.0054H17C17.1989 14.0054 17.3897 13.9264 17.5303 13.7857C17.671 13.645 17.75 13.4543 17.75 13.2554C17.75 13.0565 17.671 12.8657 17.5303 12.725C17.3897 12.5844 17.1989 12.5054 17 12.5054H8C7.80109 12.5054 7.61032 12.5844 7.46967 12.725C7.32902 12.8657 7.25 13.0565 7.25 13.2554C7.25 13.4543 7.32902 13.645 7.46967 13.7857C7.61032 13.9264 7.80109 14.0054 8 14.0054ZM22.25 5.75537V20.0054C22.2499 20.1332 22.2172 20.2589 22.1549 20.3705C22.0926 20.4821 22.0028 20.576 21.894 20.6431C21.7853 20.7103 21.6611 20.7485 21.5334 20.7542C21.4057 20.7599 21.2787 20.7329 21.1644 20.6757L18.5 19.3435L15.8356 20.6757C15.7314 20.7278 15.6165 20.755 15.5 20.755C15.3835 20.755 15.2686 20.7278 15.1644 20.6757L12.5 19.3435L9.83563 20.6757C9.73143 20.7278 9.61652 20.755 9.5 20.755C9.38348 20.755 9.26857 20.7278 9.16437 20.6757L6.5 19.3435L3.83563 20.6757C3.72131 20.7329 3.59427 20.7599 3.46657 20.7542C3.33887 20.7485 3.21474 20.7103 3.10597 20.6431C2.99721 20.576 2.90741 20.4821 2.84511 20.3705C2.78281 20.2589 2.75007 20.1332 2.75 20.0054V5.75537C2.75 5.35755 2.90804 4.97602 3.18934 4.69471C3.47064 4.41341 3.85218 4.25537 4.25 4.25537H20.75C21.1478 4.25537 21.5294 4.41341 21.8107 4.69471C22.092 4.97602 22.25 5.35755 22.25 5.75537ZM20.75 5.75537H4.25V18.7922L6.16437 17.8341C6.26857 17.782 6.38349 17.7548 6.5 17.7548C6.61651 17.7548 6.73143 17.782 6.83563 17.8341L9.5 19.1672L12.1644 17.8341C12.2686 17.782 12.3835 17.7548 12.5 17.7548C12.6165 17.7548 12.7314 17.782 12.8356 17.8341L15.5 19.1672L18.1644 17.8341C18.2686 17.782 18.3835 17.7548 18.5 17.7548C18.6165 17.7548 18.7314 17.782 18.8356 17.8341L20.75 18.7922V5.75537Z"
            fill="currentColor" />
    </g>
</svg>