<svg width="19" height="20" viewBox="0 0 19 20" fill="none" xmlns="http://www.w3.org/2000/svg">
    <path id="Vector"
        d="M18.75 9.33281V18C18.75 18.3978 18.592 18.7793 18.3107 19.0607C18.0294 19.342 17.6478 19.5 17.25 19.5H13.5C13.1022 19.5 12.7206 19.342 12.4393 19.0607C12.158 18.7793 12 18.3978 12 18V14.25C12 14.0511 11.921 13.8603 11.7803 13.7197C11.6397 13.579 11.4489 13.5 11.25 13.5H8.25C8.05109 13.5 7.86032 13.579 7.71967 13.7197C7.57902 13.8603 7.5 14.0511 7.5 14.25V18C7.5 18.3978 7.34196 18.7793 7.06066 19.0607C6.77936 19.342 6.39782 19.5 6 19.5H2.25C1.85218 19.5 1.47064 19.342 1.18934 19.0607C0.908035 18.7793 0.75 18.3978 0.75 18V9.33281C0.749968 9.12521 0.793031 8.91986 0.876461 8.72976C0.959891 8.53966 1.08187 8.36895 1.23469 8.22843L8.73469 1.15218L8.745 1.14187C9.02113 0.890742 9.38097 0.751587 9.75422 0.751587C10.1275 0.751587 10.4873 0.890742 10.7634 1.14187C10.7666 1.14554 10.7701 1.14898 10.7738 1.15218L18.2738 8.22843C18.425 8.36969 18.5454 8.54073 18.6274 8.7308C18.7094 8.92086 18.7511 9.12583 18.75 9.33281Z"
        fill="currentColor" />
</svg>