<svg width="64" height="64" viewBox="0 0 800 800" fill="none" xmlns="http://www.w3.org/2000/svg">
    <path
        d="M704.494 643.016V781.987C704.494 791.931 696.424 800 686.481 800H528.308H271.692H113.519C103.575 800 95.5063 791.93 95.5063 781.987V643.016C95.5063 576.259 148.699 521.716 214.916 519.481C215.564 519.409 307.611 522.147 321.355 423.291C276.645 392.128 243.863 335.044 234.928 266.144C233.163 264.45 231.686 262.397 230.713 260.002C227.056 251.084 223.994 241.772 221.563 232.297C210.124 187.408 213.638 140.952 231.452 101.486C249.806 60.8484 281.078 32.3516 319.517 21.2547C327.552 18.9312 335.945 17.4172 344.502 16.7688C366.928 5.6375 390.669 0 415.131 0C508.709 0 584.852 82.1047 584.852 183.031C584.852 209.312 579.789 234.711 569.811 258.47C568.749 260.992 567.181 263.117 565.289 264.83C559.777 308.98 544.286 349.78 520.256 382.311C507.9 399.045 493.885 412.825 478.664 423.434C492.355 522.128 584.438 519.408 585.086 519.481C651.302 521.716 704.494 576.259 704.494 643.016ZM668.469 763.973V643.016C668.469 594.705 629.164 555.4 580.835 555.4C580.186 555.4 554.463 555.4 528.344 544.303L432.064 681.419C428.408 686.625 423.58 690.786 418.086 693.65C412.574 696.495 406.414 698.063 400.038 698.063C387.302 698.063 375.324 691.83 367.992 681.419L271.713 544.284C248.8 554.695 219.817 555.398 219.169 555.398C170.839 555.398 131.534 594.703 131.534 643.014V763.972H271.695H528.311L668.469 763.973ZM548.644 190.291C548.752 187.877 548.824 185.462 548.824 183.031C548.824 101.972 488.839 36.0266 415.13 36.0266C395.28 36.0266 375.952 40.8906 357.722 50.4734C355.38 51.6984 352.786 52.4016 350.156 52.5094C343.041 52.8344 336.088 53.9687 329.513 55.8594C270.592 72.8813 237.897 146.88 256.019 221.419C275.474 200.992 289.667 175.809 296.764 148.466C299.195 139.189 307.23 132.559 316.795 131.947C326.325 131.353 335.078 136.883 338.627 145.709C340.914 151.437 344.752 156.409 349.724 160.12C355.542 164.461 362.477 166.748 369.772 166.748H492.55C514.474 166.748 534.342 175.772 548.644 190.291ZM531.55 228.478C531.55 228.352 531.569 228.227 531.569 228.1C524.886 213.184 509.917 202.773 492.552 202.773H369.774C354.642 202.773 340.267 198 328.181 188.994C326.236 187.534 324.363 185.986 322.597 184.347C310.889 212.303 292.93 237.522 270.197 257.769C275.061 300.1 290.408 338.773 313.842 367.414C337.853 396.739 368.458 412.897 400.035 412.897C472.556 412.897 531.55 330.163 531.55 228.478ZM402.577 660.705L497.164 526.002C470.486 505.394 451.375 475.439 444.781 441.087C430.406 446.239 415.402 448.923 400.036 448.923C384.545 448.923 369.522 446.15 355.238 440.98C348.663 475.367 329.569 505.341 302.874 525.984L397.478 660.705C398.109 661.588 398.955 662.038 400.036 662.038C401.099 662.038 401.964 661.588 402.577 660.705Z"
        fill="#1E0478" />
    <path
        d="M668.469 643.016V763.973H528.308H271.692H131.531V643.016C131.531 594.705 170.836 555.4 219.166 555.4C219.814 555.4 248.797 554.697 271.709 544.286L367.989 681.42C375.32 691.831 387.298 698.064 400.034 698.064C406.411 698.064 412.572 696.497 418.083 693.652C423.577 690.787 428.405 686.627 432.061 681.42L528.341 544.305C554.459 555.402 580.183 555.402 580.831 555.402C629.162 555.4 668.469 594.705 668.469 643.016Z"
        fill="#6F7CCD" />
    <path
        d="M548.825 183.031C548.825 185.463 548.753 187.877 548.645 190.291C534.342 175.772 514.475 166.747 492.553 166.747H369.775C362.48 166.747 355.545 164.459 349.727 160.119C344.755 156.408 340.919 151.436 338.63 145.708C335.081 136.881 326.327 131.352 316.798 131.945C307.233 132.558 299.2 139.186 296.767 148.464C289.67 175.808 275.475 200.991 256.022 221.417C237.9 146.878 270.594 72.8813 329.516 55.8578C336.091 53.9672 343.044 52.8313 350.159 52.5078C352.789 52.4 355.383 51.6969 357.725 50.4719C375.955 40.8891 395.283 36.025 415.133 36.025C488.841 36.0266 548.825 101.972 548.825 183.031Z"
        fill="#9B8CCC" />
    <path
        d="M531.569 228.1C531.569 228.227 531.55 228.352 531.55 228.478C531.55 330.163 472.556 412.897 400.036 412.897C368.459 412.897 337.855 396.739 313.844 367.414C290.409 338.773 275.061 300.098 270.198 257.769C292.931 237.522 310.891 212.303 322.598 184.347C324.364 185.986 326.238 187.536 328.183 188.994C340.27 198 354.644 202.773 369.775 202.773H492.553C509.916 202.773 524.886 213.186 531.569 228.1Z"
        fill="white" />
    <path
        d="M497.162 526.002L402.575 660.705C401.962 661.588 401.098 662.038 400.034 662.038C398.953 662.038 398.106 661.588 397.477 660.705L302.872 525.984C329.567 505.341 348.661 475.367 355.236 440.98C369.52 446.15 384.544 448.924 400.034 448.924C415.4 448.924 430.405 446.239 444.78 441.088C451.373 475.439 470.486 505.395 497.162 526.002Z"
        fill="white" />
</svg>