<svg width="31" height="31" viewBox="0 0 31 31" fill="none" xmlns="http://www.w3.org/2000/svg">
    <g id="QrCode">
        <path id="Vector"
            d="M12.4448 5.5H6.81982C6.32254 5.5 5.84563 5.69754 5.494 6.04917C5.14237 6.40081 4.94482 6.87772 4.94482 7.375V13C4.94482 13.4973 5.14237 13.9742 5.494 14.3258C5.84563 14.6775 6.32254 14.875 6.81982 14.875H12.4448C12.9421 14.875 13.419 14.6775 13.7706 14.3258C14.1223 13.9742 14.3198 13.4973 14.3198 13V7.375C14.3198 6.87772 14.1223 6.40081 13.7706 6.04917C13.419 5.69754 12.9421 5.5 12.4448 5.5ZM12.4448 13H6.81982V7.375H12.4448V13ZM12.4448 16.75H6.81982C6.32254 16.75 5.84563 16.9475 5.494 17.2992C5.14237 17.6508 4.94482 18.1277 4.94482 18.625V24.25C4.94482 24.7473 5.14237 25.2242 5.494 25.5758C5.84563 25.9275 6.32254 26.125 6.81982 26.125H12.4448C12.9421 26.125 13.419 25.9275 13.7706 25.5758C14.1223 25.2242 14.3198 24.7473 14.3198 24.25V18.625C14.3198 18.1277 14.1223 17.6508 13.7706 17.2992C13.419 16.9475 12.9421 16.75 12.4448 16.75ZM12.4448 24.25H6.81982V18.625H12.4448V24.25ZM23.6948 5.5H18.0698C17.5725 5.5 17.0956 5.69754 16.744 6.04917C16.3924 6.40081 16.1948 6.87772 16.1948 7.375V13C16.1948 13.4973 16.3924 13.9742 16.744 14.3258C17.0956 14.6775 17.5725 14.875 18.0698 14.875H23.6948C24.1921 14.875 24.669 14.6775 25.0206 14.3258C25.3723 13.9742 25.5698 13.4973 25.5698 13V7.375C25.5698 6.87772 25.3723 6.40081 25.0206 6.04917C24.669 5.69754 24.1921 5.5 23.6948 5.5ZM23.6948 13H18.0698V7.375H23.6948V13ZM16.1948 21.4375V17.6875C16.1948 17.4389 16.2936 17.2004 16.4694 17.0246C16.6452 16.8488 16.8837 16.75 17.1323 16.75C17.381 16.75 17.6194 16.8488 17.7952 17.0246C17.9711 17.2004 18.0698 17.4389 18.0698 17.6875V21.4375C18.0698 21.6861 17.9711 21.9246 17.7952 22.1004C17.6194 22.2762 17.381 22.375 17.1323 22.375C16.8837 22.375 16.6452 22.2762 16.4694 22.1004C16.2936 21.9246 16.1948 21.6861 16.1948 21.4375ZM25.5698 19.5625C25.5698 19.8111 25.4711 20.0496 25.2952 20.2254C25.1194 20.4012 24.881 20.5 24.6323 20.5H21.8198V25.1875C21.8198 25.4361 21.7211 25.6746 21.5452 25.8504C21.3694 26.0262 21.131 26.125 20.8823 26.125H17.1323C16.8837 26.125 16.6452 26.0262 16.4694 25.8504C16.2936 25.6746 16.1948 25.4361 16.1948 25.1875C16.1948 24.9389 16.2936 24.7004 16.4694 24.5246C16.6452 24.3488 16.8837 24.25 17.1323 24.25H19.9448V17.6875C19.9448 17.4389 20.0436 17.2004 20.2194 17.0246C20.3952 16.8488 20.6337 16.75 20.8823 16.75C21.131 16.75 21.3694 16.8488 21.5452 17.0246C21.7211 17.2004 21.8198 17.4389 21.8198 17.6875V18.625H24.6323C24.881 18.625 25.1194 18.7238 25.2952 18.8996C25.4711 19.0754 25.5698 19.3139 25.5698 19.5625ZM25.5698 23.3125V25.1875C25.5698 25.4361 25.4711 25.6746 25.2952 25.8504C25.1194 26.0262 24.881 26.125 24.6323 26.125C24.3837 26.125 24.1452 26.0262 23.9694 25.8504C23.7936 25.6746 23.6948 25.4361 23.6948 25.1875V23.3125C23.6948 23.0639 23.7936 22.8254 23.9694 22.6496C24.1452 22.4738 24.3837 22.375 24.6323 22.375C24.881 22.375 25.1194 22.4738 25.2952 22.6496C25.4711 22.8254 25.5698 23.0639 25.5698 23.3125Z"
            fill="currentColor" />
    </g>
</svg>